<svg width="33" height="30" viewBox="0 0 33 30" fill="none" xmlns="http://www.w3.org/2000/svg">
<path fill-rule="evenodd" clip-rule="evenodd" d="M0 15C0 14.4696 0.210714 13.9609 0.585787 13.5858C0.96086 13.2107 1.46957 13 2 13H25.172L16.584 4.416C16.2085 4.04045 15.9975 3.5311 15.9975 2.99999C15.9975 2.46889 16.2085 1.95954 16.584 1.58399C16.9595 1.20845 17.4689 0.997467 18 0.997467C18.5311 0.997467 19.0405 1.20845 19.416 1.58399L31.416 13.584C31.6023 13.7698 31.75 13.9905 31.8508 14.2335C31.9517 14.4764 32.0036 14.7369 32.0036 15C32.0036 15.2631 31.9517 15.5235 31.8508 15.7665C31.75 16.0095 31.6023 16.2302 31.416 16.416L19.416 28.416C19.0405 28.7915 18.5311 29.0025 18 29.0025C17.4689 29.0025 16.9595 28.7915 16.584 28.416C16.2085 28.0405 15.9975 27.5311 15.9975 27C15.9975 26.4689 16.2085 25.9595 16.584 25.584L25.172 17H2C1.46957 17 0.96086 16.7893 0.585787 16.4142C0.210714 16.0391 0 15.5304 0 15Z" fill="black"/>
</svg>
